<svg height="484pt" viewBox="-1 0 484 484" width="484pt" xmlns="http://www.w3.org/2000/svg"><path d="m313 476.753906v-80.707031c-.066406-33.085937-26.832031-59.910156-59.914062-60.046875h-33.085938v-27.109375c1.707031-1.390625 3.285156-2.933594 4.714844-4.609375 18.167968-18.546875 28.328125-43.492188 28.285156-69.457031v-93.347657c8-4.757812 13.742188-11.640624 18.382812-20.363281 5.828126-10.945312 9.121094-24.632812 9.121094-38.539062.019532-2.039063-.863281-3.984375-2.410156-5.316407-1.542969-1.332031-3.597656-1.917968-5.613281-1.597656l-64.835938 10.195313c-11.238281 1.78125-22.730469 1.160156-33.710937-1.824219l-29.691406-8.019531c-10.039063-2.753907-20.78125-.632813-29.019532 5.722656-2.71875 2.058594-5.109375 4.507813-7.097656 7.273437-30.320312 17.253907-49.070312 49.4375-49.125 84.324219v61.492188c.003906 25.980469 10.203125 50.921875 28.40625 69.457031 1.480469 1.519531 3.59375 2.980469 4.59375 4.390625v27.328125h-32.570312c-32.984376 0-59.429688 27.0625-59.429688 60.046875v80.707031c0 3.867188 2.75 7.246094 6.617188 7.246094h299.28125c3.933593-.109375 7.074218-3.3125 7.101562-7.246094zm-189.328125-383.898437c3.378906-2.597657 7.515625-4.007813 11.777344-4.011719 1.730469.003906 3.457031.230469 5.128906.683594l29.699219 8.023437c12.882812 3.5 26.359375 4.226563 39.542968 2.136719l56.371094-8.863281c-2.453125 25.152343-16.015625 38.5-27.960937 42.488281-7.277344 1.101562-84.113281 12.605469-119.253907 12.605469-1.621093 0-2.945312-1.296875-2.976562-2.917969v-34.738281c.003906-6.054688 2.839844-11.757813 7.671875-15.410157zm-21.671875 17.496093v32.648438c.003906 8.378906 6.144531 15.492188 14.433594 16.71875-13.773438 10.691406-28.433594 15.582031-43.433594 14.582031v-.96875c.105469-24.199219 10.679688-47.167969 29-62.980469zm-29 124.472657v-46.507813c1 .066406 2.601562.109375 3.835938.109375 26.601562 0 47.210937-15 60.886718-29.222656 37.71875-2.433594 91.277344-10.367187 101.277344-11.898437v87.519531c.066406 22.304687-8.636719 43.742187-24.230469 59.691406-15.789062 16.214844-36.546875 25.144531-58.597656 25.144531-22.179687-.046875-43.382813-9.125-58.726563-25.144531-15.652343-15.925781-24.429687-37.359375-24.445312-59.691406zm83.121094 98.835937c17.628906.011719 34.910156-4.917968 49.878906-14.234375v20.480469c-29.175781 23.527344-70.808594 23.542969-100 .03125v-20.664062c15.019531 9.417968 32.390625 14.40625 50.121094 14.386718zm142.878906 136.339844h-285v-73.953125c0-25.261719 20.167969-46.046875 45.429688-46.046875h37.121093c34.417969 29 84.722657 29 119.140625 0h37.394532c25.351562.128906 45.855468 20.691406 45.914062 46.046875zm0 0"/><path d="m121.660156 246.757812c13.933594-.015624 25.222656-11.304687 25.238282-25.238281 0-3.863281-3.132813-7-7-7-3.863282 0-7 3.136719-7 7 0 6.207031-5.027344 11.238281-11.234376 11.238281-6.203124 0-11.234374-5.03125-11.234374-11.238281 0-3.863281-3.132813-7-7-7-3.867188 0-7 3.136719-7 7 .015624 13.929688 11.300781 25.21875 25.230468 25.238281zm0 0"/><path d="m190.851562 246.757812c13.929688-.019531 25.21875-11.304687 25.234376-25.238281 0-3.863281-3.132813-7-7-7-3.863282 0-7 3.136719-7 7 0 6.207031-5.027344 11.238281-11.234376 11.238281-6.203124 0-11.234374-5.03125-11.234374-11.238281 0-3.863281-3.132813-7-7-7-3.867188 0-7 3.136719-7 7 .015624 13.933594 11.304687 25.222657 25.234374 25.238281zm0 0"/><path d="m475.382812 0h-177.523437c-3.886719.128906-6.945313 3.359375-6.859375 7.246094v131.980468c-.023438 1.816407.695312 3.566407 1.988281 4.84375 1.292969 1.28125 3.050781 1.976563 4.871094 1.929688h26.140625v31.554688c.039062 3.878906 3.199219 7.003906 7.078125 7 1.484375-.042969 2.921875-.542969 4.109375-1.433594l51.363281-37.121094h88.832031c1.792969.035156 3.523438-.671875 4.777344-1.953125 1.25-1.285156 1.917969-3.027344 1.839844-4.820313v-131.980468c0-3.867188-2.75-7.246094-6.617188-7.246094zm-7.382812 132h-83.707031c-1.496094.039062-2.945313.539062-4.148438 1.433594l-42.144531 30.449218v-24.65625c.066406-3.890624-3.003906-7.109374-6.894531-7.226562h-26.105469v-118h163zm0 0"/><path d="m328.742188 50h67.527343c3.863281 0 7-3.132812 7-7s-3.136719-7-7-7h-67.527343c-3.867188 0-7 3.132812-7 7s3.132812 7 7 7zm0 0"/><path d="m328.742188 80h117.527343c3.863281 0 7-3.132812 7-7s-3.136719-7-7-7h-117.527343c-3.867188 0-7 3.132812-7 7s3.132812 7 7 7zm0 0"/><path d="m328.742188 110h117.527343c3.863281 0 7-3.132812 7-7s-3.136719-7-7-7h-117.527343c-3.867188 0-7 3.132812-7 7s3.132812 7 7 7zm0 0"/></svg>