<?xml version="1.0" encoding="iso-8859-1"?>
<!-- Generator: Adobe Illustrator 19.0.0, SVG Export Plug-In . SVG Version: 6.00 Build 0)  -->
<svg version="1.1" id="Capa_1" xmlns="http://www.w3.org/2000/svg" xmlns:xlink="http://www.w3.org/1999/xlink" x="0px" y="0px"
	 viewBox="0 0 511.998 511.998" style="enable-background:new 0 0 511.998 511.998;" xml:space="preserve">
<g>
	<g>
		<path d="M504.498,235.252c-4.142,0-7.5,3.358-7.5,7.5v65.736H15V67.507h390.91c4.142,0,7.5-3.358,7.5-7.5
			c0-4.142-3.358-7.5-7.5-7.5H7.5c-4.142,0-7.5,3.358-7.5,7.5v294.782c0,4.142,3.358,7.5,7.5,7.5h85.077c4.142,0,7.5-3.358,7.5-7.5
			c0-4.142-3.358-7.5-7.5-7.5H15v-23.335v-0.466h481.998v0.466v23.335H126.754c-4.142,0-7.5,3.358-7.5,7.5
			c0,4.142,3.358,7.5,7.5,7.5h82.033v55.2h-24.792c-4.142,0-7.5,3.358-7.5,7.5v27.001c0,4.142,3.358,7.5,7.5,7.5h144.006
			c4.142,0,7.5-3.358,7.5-7.5v-27.001c0-4.142-3.358-7.5-7.5-7.5H303.21v-55.2h201.288c4.142,0,7.5-3.358,7.5-7.5V242.752
			C511.998,238.61,508.64,235.252,504.498,235.252z M243.998,362.289H268v11.738c0,6.617-5.384,12.001-12.001,12.001
			s-12.001-5.384-12.001-12.001V362.289z M223.787,362.288h5.21v11.738c0,14.888,12.113,27.001,27.001,27.001
			S283,388.915,283,374.026v-11.737h5.21v55.199h-64.423V362.288z M320.502,432.488v12.001H191.496v-12.001H320.502z"/>
	</g>
</g>
<g>
	<g>
		<path d="M504.498,52.507h-64.41c-4.142,0-7.5,3.358-7.5,7.5s3.358,7.5,7.5,7.5h56.91v141.068c0,4.142,3.358,7.5,7.5,7.5
			c4.142,0,7.5-3.358,7.5-7.5V60.007C511.998,55.866,508.64,52.507,504.498,52.507z"/>
	</g>
</g>
<g>
</g>
<g>
</g>
<g>
</g>
<g>
</g>
<g>
</g>
<g>
</g>
<g>
</g>
<g>
</g>
<g>
</g>
<g>
</g>
<g>
</g>
<g>
</g>
<g>
</g>
<g>
</g>
<g>
</g>
</svg>
